<?xml version="1.0" encoding="UTF-8" standalone="no"?>
<!DOCTYPE svg PUBLIC "-//W3C//DTD SVG 1.1//EN" "http://www.w3.org/Graphics/SVG/1.1/DTD/svg11.dtd">
<svg width="100%" height="100%" viewBox="0 0 2571 3391" version="1.1" xmlns="http://www.w3.org/2000/svg" xmlns:xlink="http://www.w3.org/1999/xlink" xml:space="preserve" xmlns:serif="http://www.serif.com/" style="fill-rule:evenodd;clip-rule:evenodd;stroke-linecap:round;stroke-linejoin:round;stroke-miterlimit:2.16463;">
    <g transform="matrix(1,0,0,1,-28475.8,-841.338)">
        <g id="Artboardbfinal-blau" serif:id="Artboardbfinal blau" transform="matrix(1.27158,0,0,1.18374,27657,0)">
            <rect x="0" y="0" width="3307.09" height="4677.16" style="fill:none;"/>
            <g transform="matrix(6.12547e-17,1.0746,-0.786423,5.17277e-17,3318.3,213.298)">
                <g transform="matrix(0.786136,0,0,1,-18427.4,-1157.41)">
                    <path d="M26127.7,2600.83L26667.1,2221.56M25129.8,2098.07L24571.1,2475.39M26605.9,3336.23L26791,3084.03L26820,2614.85M25359.9,2688.46C25359.9,2688.46 25499.7,2604.33 25645.8,2562.83C25765.5,2528.81 25896.4,2535.92 25898.9,2536.05L25129.8,2098.07L25359.9,2688.46ZM24390.5,3299.89L25034.2,3744.35M26651.9,4485.36L26701.2,4059.9L27275.4,3998.61L27245.6,3605.17M27275.4,3998.61L26823.3,3863.46L27245.6,3605.17L26900.2,3588.24M26900.2,3588.24L27269.3,3206.47L27381.7,3512.16L27245.6,3605.17L27275.4,3998.61M26605.9,3336.23L26520,3656.51M26035.9,2393.3L25898.3,2536.05L25129.8,2098.07L25940.6,2048.87L25898.9,2536.05L25940.6,2048.87L26035.9,2393.3L25898.9,2536.05L25898.3,2536.05L25632.9,2562.83L25359.9,2688.46M27021.8,3103.07L27269.3,3206.47L27021.8,3103.07L26900.2,3588.24L26605.9,3336.23M26823.3,3863.46L26900.2,3588.24M25091.9,3180.5L24390.5,3299.89L25161,3652.73L25077.6,3394.06L25091.9,3180.5L24953.1,2836.04L25129.8,2098.07L24953.1,2836.04L24667.8,2822.01L24390.5,3299.89C24390.5,3299.89 24074.1,2545.21 24074.1,2545.21L24571.1,2475.39L24667.8,2822.01L24074.1,2545.21M24390.5,3299.89L24571.1,2475.39L24953.1,2836.04M24571.1,2475.39L24074.1,2545.21M26667.1,2221.56L26035.9,2393.3M25091.9,3180.5L24953.1,2836.04M27024.5,2832.43L26820,2614.85M25908.9,4059.9L25581.2,4547M25908.9,4059.9L26651.9,4485.36M26651.9,4485.36L26305.3,3909.62L26520,3656.51L26651.9,4485.36L26305.3,3909.62L26701.2,4059.9M27381.7,3512.16L27021.8,3103.07L26605.9,3336.23L26573.1,3042.86L26429.6,2799.3L26667.1,2221.56L26820,2614.85M27021.8,3103.07L27024.5,2832.43M26520,3656.51L26823.3,3863.46M26701.2,4059.9L26823.3,3863.46M26820,2614.85L26429.6,2799.3M26605.9,3336.23C26605.9,3336.23 26520,3656.51 26520,3656.51L26605.9,3336.23M25161,3652.73L25034.2,3744.35M26651.9,4485.36L25987.1,4321.57L25581.2,4547L25987.1,4321.57L25908.9,4059.9M25034.2,3744.35M25581.2,4547L25908.9,4059.9M25065.7,4224.81L25161,3652.73M25363.8,2687.73L24952.7,2836.04M25414.3,3925.48L25034.2,3744.35L25161,3652.73L25034.2,3744.35L25065.7,4224.81L25581.2,4547" style="fill:none;stroke:rgb(35,59,124);stroke-width:19.44px;"/>
                </g>
                <g transform="matrix(0.786136,0,0,1,-18427.4,-1157.41)">
                    <path d="M26573.1,3548.95C26512.9,3688.08 26422.7,3813.16 26305.3,3925.48L26127.7,4014.34L25908.9,4059.9L25581.2,4547L25414.3,3925.48" style="fill:none;stroke:rgb(35,59,124);stroke-width:19.44px;"/>
                </g>
                <g transform="matrix(0.786136,0,0,1,-18427.4,-1157.41)">
                    <path d="M26605.9,3336.23C26605.9,3336.23 26573.1,3042.86 26573.1,3042.86L26429.6,2799.3L26791,3084.03L27021.8,3103.07" style="fill:none;stroke:rgb(35,59,124);stroke-width:19.44px;"/>
                </g>
                <g id="Layer17" transform="matrix(0.786136,0,0,1,6.7073,7.6646)">
                    <g transform="matrix(0.456794,0,0,0.461923,2325.21,960.51)">
                        <circle cx="2300.49" cy="3761.12" r="73.031" style="fill:rgb(35,59,124);stroke:rgb(35,59,124);stroke-width:42.33px;"/>
                    </g>
                    <g transform="matrix(0.446919,0,0,0.451937,1560.57,-474.317)">
                        <circle cx="2300.49" cy="3761.12" r="73.031" style="fill:rgb(35,59,124);stroke:rgb(35,59,124);stroke-width:43.26px;"/>
                    </g>
                    <g transform="matrix(0.428758,0,0,0.433572,-365.003,-248.66)">
                        <circle cx="2300.49" cy="3761.12" r="73.031" style="fill:rgb(35,59,124);stroke:rgb(35,59,124);stroke-width:45.1px;"/>
                    </g>
                    <g transform="matrix(0.438586,0.103097,-0.104254,0.443511,3311.72,437.749)">
                        <circle cx="2300.49" cy="3761.12" r="73.031" style="fill:rgb(35,59,124);stroke:rgb(35,59,124);stroke-width:42.92px;"/>
                    </g>
                </g>
                <g id="Layer16" transform="matrix(0.786136,0,0,1,0,0)">
                    <g transform="matrix(0.966552,0.256472,-0.256472,0.966552,2869.58,-749.011)">
                        <circle cx="1365.46" cy="3853.84" r="63.449" style="fill:white;stroke:rgb(35,59,124);stroke-width:22.22px;stroke-linecap:square;stroke-linejoin:bevel;"/>
                    </g>
                    <g transform="matrix(1.52567,0.404833,-0.404833,1.52567,1163.97,-5488.14)">
                        <circle cx="1365.46" cy="3853.84" r="63.449" style="fill:white;stroke:rgb(35,59,124);stroke-width:17.6px;stroke-linecap:square;stroke-linejoin:bevel;"/>
                    </g>
                    <g transform="matrix(0.549347,0,0,0.549347,1250.6,1163.1)">
                        <circle cx="681.808" cy="3466.47" r="69.648" style="fill:white;stroke:rgb(35,59,124);stroke-width:35.4px;"/>
                    </g>
                    <g transform="matrix(0.823487,-0.129829,0.130903,0.830299,-67.2847,-649.166)">
                        <circle cx="681.808" cy="3466.47" r="69.648" style="fill:white;stroke:rgb(35,59,124);stroke-width:26.55px;"/>
                    </g>
                    <g transform="matrix(0.54633,0.0574942,-0.0574942,0.54633,3052.97,-866.129)">
                        <circle cx="681.808" cy="3466.47" r="69.648" style="fill:white;stroke:rgb(35,59,124);stroke-width:35.4px;"/>
                    </g>
                </g>
            </g>
            <g transform="matrix(6.12547e-17,1.0746,-0.786423,5.17277e-17,3314.92,222.92)">
                <g transform="matrix(0.840147,0,0,1.05851,503.485,-183.083)">
                    <ellipse cx="1636.91" cy="2193.27" rx="715.041" ry="721.928" style="fill:white;stroke:rgb(35,59,124);stroke-width:41.79px;stroke-miterlimit:1.5;"/>
                </g>
                <g transform="matrix(0.786136,0,0,1,-21608.3,-353.145)">
                    <g id="Layer7">
                        <path d="M30481,2118.92C30481,2118.92 30356.9,1950.98 30351.5,1966.47C30320.2,2055.99 30324.6,2179.97 30250.8,2294.34C30232.4,2322.97 30218.8,2360.66 30095.7,2358.48C30080.1,2358.21 30016,2298.18 30000,2294.16C29980.6,2289.29 29941.6,2281.07 29933.5,2280.43C29925.8,2279.82 29928.3,2268.29 29923.2,2264.44C29894.5,2242.44 29677.3,2153.39 29747.6,2237.51L29759.7,2239.62C29759.7,2239.62 29651.4,2232.21 29592.6,2239.13C29562.8,2242.63 29508.1,2257.11 29470.2,2285.59C29448.6,2301.86 29403.1,2336.34 29389.3,2441.33C29386.3,2463.76 29386.8,2463.81 29386.8,2489.59C29386.8,2515.37 29384.9,2515.59 29389.3,2544.46C29402.9,2634.56 29443,2676.16 29473.1,2697.25C29502.3,2717.65 29552.2,2740.82 29595.6,2746.73C29654.3,2754.72 29759.7,2746.17 29759.7,2746.17L29747.6,2748.28C29677.3,2832.4 29894.5,2743.35 29923.2,2721.35C29928.3,2717.5 29925.8,2705.97 29933.5,2705.36C29941.6,2704.72 29980.6,2696.5 30000,2691.63C30016,2687.61 30080.1,2627.58 30095.7,2627.3C30218.8,2625.13 30232.4,2662.82 30250.8,2691.45C30324.6,2805.82 30320.2,2924.6 30351.5,3012.59C30356.9,3027.81 30481,2873.82 30481,2873.82L30481,2118.92Z" style="fill:rgb(35,59,124);stroke:rgb(35,59,124);stroke-width:16.94px;"/>
                    </g>
                </g>
            </g>
        </g>
    </g>
</svg>
